# xmcd
#
# Track frame offsets:
#	150
#	11848
#	27372
#	45173
#	60319
#	78045
#	96691
#	114856
#	136277
#	152699
#	169228
#	186714
#	201808
#	218766
#	235038
#
# Disc length: 3392 seconds
#
# Revision: 1
# Processed by: cddbd v1.4PL0 Copyright (c) Steve Scherf et al.
# Submitted via: audiograbber 1.80
#
DISCID=c10d3e0f
DTITLE=Variuos - Hott Country 72
DYEAR=1900
DGENRE=
TTITLE0=Scooter Lee - If You Don't Straighten Up
TTITLE1=Doc Walker - She Hasn't Always Been This Way
TTITLE2=Kenny Chesney - Young
TTITLE3=Trick Pony - Just What I Do
TTITLE4=Alabama - The Woman He Loves
TTITLE5=Lonestar - Not A Day Goes By
TTITLE6=Kellie Coffey - WhenYou Lie Next To Me
TTITLE7=Travis Tritt - Modern Bonnie And Clyde
TTITLE8=Mindy McCready - Maybe, Maybe Not
TTITLE9=Gary Allan - The One
TTITLE10=Kevin Denny - That's Just Jenny
TTITLE11=Toby Keith  - My List
TTITLE12=The Cash Brothers - Night Shift Guru
TTITLE13=Tommy Shane Steiner - What If She's An Angel
TTITLE14=Blue Rodeo - To Love Somebody
EXTD=
EXTT0=
EXTT1=
EXTT2=
EXTT3=
EXTT4=
EXTT5=
EXTT6=
EXTT7=
EXTT8=
EXTT9=
EXTT10=
EXTT11=
EXTT12=
EXTT13=
EXTT14=
PLAYORDER=
